<?xml version="1.0" encoding="utf-8"?>
<!-- Generator: Adobe Illustrator 16.0.0, SVG Export Plug-In . SVG Version: 6.00 Build 0)  -->
<!DOCTYPE svg PUBLIC "-//W3C//DTD SVG 1.0//EN" "http://www.w3.org/TR/2001/REC-SVG-20010904/DTD/svg10.dtd" [
	<!ENTITY ns_extend "http://ns.adobe.com/Extensibility/1.0/">
	<!ENTITY ns_ai "http://ns.adobe.com/AdobeIllustrator/10.0/">
	<!ENTITY ns_graphs "http://ns.adobe.com/Graphs/1.0/">
	<!ENTITY ns_vars "http://ns.adobe.com/Variables/1.0/">
	<!ENTITY ns_imrep "http://ns.adobe.com/ImageReplacement/1.0/">
	<!ENTITY ns_sfw "http://ns.adobe.com/SaveForWeb/1.0/">
	<!ENTITY ns_custom "http://ns.adobe.com/GenericCustomNamespace/1.0/">
	<!ENTITY ns_adobe_xpath "http://ns.adobe.com/XPath/1.0/">
]>
<svg version="1.0" id="Layer_1" xmlns:x="&ns_extend;" xmlns:i="&ns_ai;" xmlns:graph="&ns_graphs;"
	 xmlns="http://www.w3.org/2000/svg" xmlns:xlink="http://www.w3.org/1999/xlink" x="0px" y="0px" width="60px" height="60px"
	 viewBox="0 0 60 60" enable-background="new 0 0 60 60" xml:space="preserve">
<metadata>
	<sfw  xmlns="&ns_sfw;">
		<slices></slices>
		<sliceSourceBounds  width="60" height="60" y="0.5" x="-0.562" bottomLeftOrigin="true"></sliceSourceBounds>
	</sfw>
</metadata>
<rect x="11.56" y="24.375" fill="#212121" width="45.911" height="32.176"/>
<path fill="#F0DB4F" d="M-0.062,0v60h60V0H-0.062z M31.675,51.126c-0.885,1.8-2.576,2.981-4.535,3.552
	c-3.01,0.692-5.889,0.298-8.031-0.986c-1.434-0.881-2.552-2.233-3.313-3.792l4.571-2.8c0.04,0.017,0.159,0.235,0.32,0.515
	c0.583,0.976,1.085,1.667,2.073,2.152c0.971,0.331,3.102,0.544,3.924-1.164c0.502-0.869,0.343-3.661,0.343-6.752
	c0-4.854,0.021-9.69,0.021-14.49h5.62c0,5.28,0.029,10.28,0,15.433C32.681,45.952,32.954,48.768,31.675,51.126z M54.989,49.538
	c-1.953,6.683-12.845,6.901-17.2,2.485c-0.919-1.038-1.493-1.582-2.043-2.781c2.313-1.331,2.313-1.331,4.565-2.634
	c1.222,1.88,2.351,2.913,4.385,3.336c2.76,0.336,5.535-0.612,4.912-3.543c-0.64-2.392-5.649-2.976-9.058-5.534
	c-3.462-2.325-4.273-7.974-1.429-11.201c0.948-1.194,2.564-2.085,4.261-2.514l1.769-0.229c3.4-0.068,5.523,0.829,7.085,2.571
	c0.435,0.439,0.788,0.915,1.45,1.941c-1.81,1.154-1.805,1.144-4.399,2.821c-0.552-1.191-1.473-1.94-2.443-2.267
	c-1.507-0.457-3.41,0.041-3.806,1.634c-0.136,0.492-0.108,0.948,0.11,1.759c0.608,1.395,2.661,2.001,4.5,2.843
	c5.295,2.15,7.084,4.452,7.522,7.194C55.596,47.779,55.07,49.31,54.989,49.538z"/>
</svg>
